<svg width="545" height="366" viewBox="0 0 545 366" fill="none" xmlns="http://www.w3.org/2000/svg">
<path d="M90.9908 78.4369C95.2006 76.1418 109.334 67.7828 112.124 52.6367C112.651 49.7771 112.901 45.9781 111.606 39.4124C110.086 31.7089 105.737 16.661 90.8622 0.000244141C90.3406 0.73076 89.5744 1.80599 88.6581 3.11163C85.3038 7.89124 79.3329 16.5949 76.9895 20.6137C75.5499 23.082 68.652 36.2117 69.0807 47.8392C69.7165 65.0644 84.8823 74.0288 88.3974 76.7509L90.9908 78.4369Z" fill="#D5B7A9"/>
<path d="M56.3779 22.1709C56.3779 22.1709 69.2129 29.301 69.2129 32.9322C69.2129 32.9322 74.1389 18.4112 76.8627 16.5965L61.3058 5.83521L56.3779 22.1709Z" fill="#D5B7A9"/>
<path d="M126.269 22.1711C126.269 22.1711 113.434 29.3013 113.434 32.9324C113.434 32.9324 108.508 18.4114 105.784 16.5967L121.341 5.83545L126.269 22.1711Z" fill="#D5B7A9"/>
<g opacity="0.86">
<path d="M91.119 80.9001C86.359 81.9914 109.218 82.1539 121.197 74.1593C128.291 69.4244 132.701 63.1212 134.291 60.8064C137.508 56.125 139.137 52.1599 140.514 48.7484C141.821 45.5102 145.793 35.0258 146.088 20.8745C146.118 19.4528 146.104 18.2811 146.088 17.5042C139.379 18.9295 129.777 22.0212 120.549 29.2371C117.978 31.2464 115.767 33.3183 113.872 35.3312C113.872 35.3294 120.224 74.2236 91.119 80.9001Z" fill="#D5B7A9"/>
</g>
<g opacity="0.86">
<path d="M89.8355 80.9001C94.5955 81.9914 71.737 82.1539 59.7576 74.1593C52.6632 69.4244 48.2533 63.1212 46.6637 60.8064C43.4469 56.125 41.818 52.1599 40.4409 48.7484C39.1334 45.5102 35.1611 35.0258 34.8664 20.8745C34.8361 19.4528 34.8504 18.2811 34.8664 17.5042C41.575 18.9295 51.1771 22.0212 60.4059 29.2371C62.9761 31.2464 65.1873 33.3183 67.0824 35.3312C67.0824 35.3294 60.731 74.2236 89.8355 80.9001Z" fill="#D5B7A9"/>
</g>
<g opacity="0.42">
<path d="M95.1407 83.6235C95.1603 83.2109 104.802 85.3829 115.754 81.2891C124.043 78.192 129.25 72.9409 132.284 69.8152C140.92 60.9204 144.625 51.0093 146.286 44.9223C146.286 44.9223 153.287 34.3235 171.47 35.9775C171.286 36.6741 170.993 37.7261 170.595 38.9924C168.701 44.9973 163.164 61.7384 146.772 73.6089C134.953 82.1661 123.234 84.0344 118.767 84.6934C105.745 86.6135 95.1192 84.0558 95.1407 83.6235Z" fill="#D5B7A9"/>
</g>
<g opacity="0.42">
<path d="M85.3291 83.6238C85.3095 83.2112 75.6681 85.3831 64.7157 81.2894C56.4264 78.1923 51.2199 72.9411 48.1853 69.8154C39.5495 60.9206 35.8451 51.0096 34.184 44.9225C34.184 44.9225 27.1825 34.3238 9 35.9777C9.18397 36.6743 9.47689 37.7263 9.87519 38.9927C11.7685 44.9975 17.3054 61.7387 33.6982 73.6091C45.5169 82.1663 57.2355 84.0346 61.7025 84.6937C74.725 86.6137 85.3505 84.056 85.3291 83.6238Z" fill="#D5B7A9"/>
</g>
<path d="M273.464 78.4369C277.674 76.1418 291.808 67.7828 294.598 52.6367C295.124 49.7771 295.375 45.9781 294.08 39.4124C292.56 31.7089 288.21 16.661 273.336 0.000244141C272.814 0.73076 272.048 1.80599 271.132 3.11163C267.777 7.89124 261.807 16.5949 259.463 20.6137C258.024 23.082 251.126 36.2117 251.554 47.8392C252.19 65.0644 267.356 74.0288 270.871 76.7509L273.464 78.4369Z" fill="#D5B7A9"/>
<path d="M238.852 22.1709C238.852 22.1709 251.686 29.301 251.686 32.9322C251.686 32.9322 256.613 18.4112 259.336 16.5965L243.779 5.83521L238.852 22.1709Z" fill="#D5B7A9"/>
<path d="M308.743 22.1709C308.743 22.1709 295.908 29.301 295.908 32.9322C295.908 32.9322 290.982 18.4112 288.258 16.5965L303.815 5.83521L308.743 22.1709Z" fill="#D5B7A9"/>
<g opacity="0.86">
<path d="M273.593 80.8998C268.833 81.9911 291.691 82.1537 303.671 74.1591C310.765 69.4241 315.175 63.121 316.765 60.8062C319.981 56.1248 321.61 52.1597 322.987 48.7482C324.295 45.51 328.267 35.0256 328.562 20.8743C328.592 19.4525 328.578 18.2809 328.562 17.5039C321.853 18.9292 312.251 22.021 303.022 29.2368C300.452 31.2462 298.241 33.3181 296.346 35.331C296.346 35.3292 302.697 74.2234 273.593 80.8998Z" fill="#D5B7A9"/>
</g>
<g opacity="0.86">
<path d="M272.309 80.8998C277.069 81.9911 254.211 82.1537 242.231 74.1591C235.137 69.4241 230.727 63.121 229.137 60.8062C225.921 56.1248 224.292 52.1597 222.915 48.7482C221.607 45.51 217.635 35.0256 217.34 20.8743C217.31 19.4525 217.324 18.2809 217.34 17.5039C224.049 18.9292 233.651 22.021 242.88 29.2368C245.45 31.2462 247.661 33.3181 249.556 35.331C249.556 35.3292 243.205 74.2234 272.309 80.8998Z" fill="#D5B7A9"/>
</g>
<g opacity="0.42">
<path d="M277.614 83.6238C277.634 83.2112 287.275 85.3831 298.228 81.2894C306.517 78.1923 311.723 72.9411 314.758 69.8154C323.394 60.9206 327.098 51.0096 328.759 44.9225C328.759 44.9225 335.761 34.3238 353.943 35.9777C353.759 36.6743 353.467 37.7263 353.068 38.9927C351.175 44.9975 345.638 61.7387 329.245 73.6091C317.427 82.1663 305.708 84.0346 301.241 84.6937C288.218 86.6137 277.593 84.056 277.614 83.6238Z" fill="#D5B7A9"/>
</g>
<g opacity="0.42">
<path d="M267.803 83.6238C267.783 83.2112 258.142 85.3831 247.189 81.2894C238.9 78.1923 233.694 72.9411 230.659 69.8154C222.023 60.9206 218.319 51.0096 216.658 44.9225C216.658 44.9225 209.656 34.3238 191.474 35.9777C191.658 36.6743 191.951 37.7263 192.349 38.9927C194.242 44.9975 199.779 61.7387 216.172 73.6091C227.991 82.1663 239.709 84.0346 244.176 84.6937C257.199 86.6137 267.824 84.056 267.803 83.6238Z" fill="#D5B7A9"/>
</g>
<path d="M455.939 78.4367C460.149 76.1416 474.282 67.7826 477.072 52.6364C477.599 49.7769 477.849 45.9779 476.554 39.4121C475.034 31.7087 470.685 16.6608 455.81 0C455.289 0.730516 454.523 1.80575 453.606 3.11139C450.252 7.891 444.281 16.5947 441.938 20.6134C440.498 23.0818 433.6 36.2114 434.029 47.839C434.665 65.0641 449.831 74.0286 453.346 76.7506L455.939 78.4367Z" fill="#D5B7A9"/>
<path d="M421.326 22.1709C421.326 22.1709 434.161 29.301 434.161 32.9322C434.161 32.9322 439.087 18.4112 441.811 16.5965L426.254 5.83521L421.326 22.1709Z" fill="#D5B7A9"/>
<path d="M491.217 22.1709C491.217 22.1709 478.382 29.301 478.382 32.9322C478.382 32.9322 473.456 18.4112 470.732 16.5965L486.289 5.83521L491.217 22.1709Z" fill="#D5B7A9"/>
<g opacity="0.86">
<path d="M456.067 80.8996C451.307 81.9909 474.166 82.1534 486.145 74.1588C493.24 69.4239 497.65 63.1207 499.239 60.8059C502.456 56.1246 504.085 52.1594 505.462 48.748C506.769 45.5098 510.742 35.0253 511.036 20.874C511.067 19.4523 511.052 18.2806 511.036 17.5037C504.328 18.929 494.726 22.0207 485.497 29.2366C482.927 31.2459 480.715 33.3178 478.82 35.3307C478.82 35.329 485.172 74.2231 456.067 80.8996Z" fill="#D5B7A9"/>
</g>
<g opacity="0.86">
<path d="M454.784 80.8996C459.544 81.9909 436.685 82.1534 424.706 74.1588C417.611 69.4239 413.202 63.1207 411.612 60.8059C408.395 56.1246 406.766 52.1594 405.389 48.748C404.082 45.5098 400.109 35.0253 399.815 20.874C399.784 19.4523 399.799 18.2806 399.815 17.5037C406.523 18.929 416.125 22.0207 425.354 29.2366C427.924 31.2459 430.136 33.3178 432.031 35.3307C432.031 35.329 425.679 74.2231 454.784 80.8996Z" fill="#D5B7A9"/>
</g>
<g opacity="0.42">
<path d="M460.089 83.6235C460.109 83.2109 469.75 85.3829 480.702 81.2891C488.992 78.192 494.198 72.9409 497.233 69.8152C505.869 60.9204 509.573 51.0093 511.234 44.9223C511.234 44.9223 518.235 34.3235 536.418 35.9775C536.234 36.6741 535.941 37.7261 535.543 38.9924C533.65 44.9973 528.113 61.7384 511.72 73.6089C499.901 82.1661 488.183 84.0344 483.715 84.6934C470.693 86.6135 460.067 84.0558 460.089 83.6235Z" fill="#D5B7A9"/>
</g>
<g opacity="0.42">
<path d="M450.277 83.6233C450.258 83.2107 440.616 85.3826 429.664 81.2889C421.375 78.1918 416.168 72.9406 413.134 69.8149C404.498 60.9201 400.793 51.0091 399.132 44.922C399.132 44.922 392.131 34.3233 373.948 35.9772C374.132 36.6738 374.425 37.7258 374.823 38.9922C376.717 44.997 382.254 61.7382 398.646 73.6086C410.465 82.1658 422.184 84.0341 426.651 84.6932C439.673 86.6132 450.299 84.0555 450.277 83.6233Z" fill="#D5B7A9"/>
</g>
<mask id="mask0_62_6097" style="mask-type:alpha" maskUnits="userSpaceOnUse" x="0" y="93" width="80" height="86">
<rect y="93.3997" width="80" height="85" fill="#D9D9D9"/>
</mask>
<g mask="url(#mask0_62_6097)">
<path d="M-0.00920805 171.837C4.20064 169.541 18.3341 161.182 21.124 146.036C21.6509 143.177 21.9009 139.378 20.606 132.812C19.086 125.109 14.7369 110.061 -0.137813 93.3999C-0.659355 94.1304 -1.42559 95.2056 -2.34186 96.5113C-5.69616 101.291 -11.6671 109.995 -14.0105 114.013C-15.4501 116.482 -22.348 129.611 -21.9193 141.239C-21.2835 158.464 -6.11768 167.428 -2.60263 170.151L-0.00920805 171.837Z" fill="#D5B7A9"/>
<path d="M35.269 115.571C35.269 115.571 22.434 122.701 22.434 126.332C22.434 126.332 17.508 111.811 14.7842 109.996L30.3411 99.2351L35.269 115.571Z" fill="#D5B7A9"/>
<g opacity="0.86">
<path d="M0.119001 174.3C-4.64096 175.391 18.2176 175.554 30.197 167.559C37.2914 162.824 41.7013 156.521 43.2909 154.206C46.5077 149.525 48.1366 145.56 49.5137 142.148C50.8211 138.91 54.7934 128.425 55.0881 114.274C55.1185 112.852 55.1042 111.681 55.0881 110.904C48.3795 112.329 38.7774 115.421 29.5486 122.637C26.9784 124.646 24.7672 126.718 22.8722 128.731C22.8722 128.729 29.2235 167.623 0.119001 174.3Z" fill="#D5B7A9"/>
</g>
<g opacity="0.86">
<path d="M-1.16446 174.3C3.59551 175.391 -19.263 175.554 -31.2424 167.559C-38.3368 162.824 -42.7467 156.521 -44.3363 154.206C-47.5531 149.525 -49.182 145.56 -50.5591 142.148C-51.8666 138.91 -55.8389 128.425 -56.1336 114.274C-56.1639 112.852 -56.1496 111.681 -56.1336 110.904C-49.425 112.329 -39.8229 115.421 -30.5941 122.637C-28.0239 124.646 -25.8127 126.718 -23.9176 128.731C-23.9176 128.729 -30.269 167.623 -1.16446 174.3Z" fill="#D5B7A9"/>
</g>
<g opacity="0.42">
<path d="M4.14066 177.023C4.1603 176.611 13.8017 178.783 24.7541 174.689C33.0434 171.592 38.2499 166.341 41.2845 163.215C49.9203 154.32 53.6246 144.409 55.2857 138.322C55.2857 138.322 62.2872 127.723 80.4698 129.377C80.2858 130.074 79.9929 131.126 79.5946 132.392C77.7013 138.397 72.1644 155.138 55.7715 167.009C43.9529 175.566 32.2343 177.434 27.7672 178.093C14.7447 180.013 4.11922 177.455 4.14066 177.023Z" fill="#D5B7A9"/>
</g>
</g>
<path d="M181.995 171.836C186.205 169.541 200.338 161.182 203.128 146.036C203.655 143.177 203.905 139.378 202.61 132.812C201.09 125.108 196.741 110.06 181.866 93.3997C181.345 94.1302 180.578 95.2054 179.662 96.511C176.308 101.291 170.337 109.994 167.993 114.013C166.554 116.481 159.656 129.611 160.085 141.239C160.72 158.464 175.886 167.428 179.401 170.15L181.995 171.836Z" fill="#D5B7A9"/>
<path d="M147.381 115.571C147.381 115.571 160.216 122.701 160.216 126.332C160.216 126.332 165.142 111.811 167.866 109.996L152.309 99.2349L147.381 115.571Z" fill="#D5B7A9"/>
<path d="M217.27 115.571C217.27 115.571 204.435 122.701 204.435 126.332C204.435 126.332 199.509 111.811 196.785 109.996L212.342 99.2349L217.27 115.571Z" fill="#D5B7A9"/>
<g opacity="0.86">
<path d="M182.125 174.3C177.365 175.391 200.223 175.554 212.203 167.559C219.297 162.824 223.707 156.521 225.297 154.206C228.514 149.525 230.142 145.56 231.52 142.148C232.827 138.91 236.799 128.425 237.094 114.274C237.124 112.852 237.11 111.681 237.094 110.904C230.385 112.329 220.783 115.421 211.554 122.637C208.984 124.646 206.773 126.718 204.878 128.731C204.878 128.729 211.229 167.623 182.125 174.3Z" fill="#D5B7A9"/>
</g>
<g opacity="0.86">
<path d="M180.839 174.3C185.599 175.391 162.741 175.554 150.761 167.559C143.667 162.824 139.257 156.521 137.668 154.206C134.451 149.525 132.822 145.56 131.445 142.148C130.137 138.91 126.165 128.425 125.87 114.274C125.84 112.852 125.854 111.681 125.87 110.904C132.579 112.329 142.181 115.421 151.41 122.637C153.98 124.646 156.191 126.718 158.086 128.731C158.086 128.729 151.735 167.623 180.839 174.3Z" fill="#D5B7A9"/>
</g>
<g opacity="0.42">
<path d="M186.145 177.023C186.164 176.611 195.806 178.783 206.758 174.689C215.047 171.592 220.254 166.341 223.288 163.215C231.924 154.32 235.629 144.409 237.29 138.322C237.29 138.322 244.291 127.723 262.474 129.377C262.29 130.074 261.997 131.126 261.598 132.392C259.705 138.397 254.168 155.138 237.775 167.009C225.957 175.566 214.238 177.434 209.771 178.093C196.749 180.013 186.123 177.455 186.145 177.023Z" fill="#D5B7A9"/>
</g>
<g opacity="0.42">
<path d="M176.333 177.023C176.313 176.611 166.672 178.783 155.72 174.689C147.43 171.592 142.224 166.341 139.189 163.215C130.553 154.32 126.849 144.409 125.188 138.322C125.188 138.322 118.186 127.723 100.004 129.377C100.188 130.074 100.481 131.126 100.879 132.392C102.772 138.397 108.309 155.138 124.702 167.009C136.521 175.566 148.239 177.434 152.706 178.093C165.729 180.013 176.354 177.455 176.333 177.023Z" fill="#D5B7A9"/>
</g>
<path d="M364.469 171.836C368.679 169.541 382.813 161.182 385.602 146.036C386.129 143.177 386.379 139.378 385.085 132.812C383.565 125.108 379.215 110.06 364.341 93.3997C363.819 94.1302 363.053 95.2054 362.137 96.511C358.782 101.291 352.811 109.994 350.468 114.013C349.028 116.481 342.131 129.611 342.559 141.239C343.195 158.464 358.361 167.428 361.876 170.15L364.469 171.836Z" fill="#D5B7A9"/>
<path d="M329.855 115.57C329.855 115.57 342.69 122.7 342.69 126.332C342.69 126.332 347.616 111.811 350.34 109.996L334.783 99.2346L329.855 115.57Z" fill="#D5B7A9"/>
<path d="M399.745 115.57C399.745 115.57 386.91 122.7 386.91 126.332C386.91 126.332 381.984 111.811 379.26 109.996L394.817 99.2346L399.745 115.57Z" fill="#D5B7A9"/>
<g opacity="0.86">
<path d="M364.599 174.299C359.84 175.391 382.698 175.553 394.677 167.558C401.772 162.824 406.182 156.52 407.771 154.206C410.988 149.524 412.617 145.559 413.994 142.148C415.302 138.909 419.274 128.425 419.569 114.274C419.599 112.852 419.585 111.68 419.569 110.903C412.86 112.329 403.258 115.42 394.029 122.636C391.459 124.646 389.248 126.717 387.353 128.73C387.353 128.729 393.704 167.623 364.599 174.299Z" fill="#D5B7A9"/>
</g>
<g opacity="0.86">
<path d="M363.314 174.299C368.074 175.391 345.215 175.553 333.236 167.558C326.142 162.824 321.732 156.52 320.142 154.206C316.925 149.524 315.296 145.559 313.919 142.148C312.612 138.909 308.64 128.425 308.345 114.274C308.315 112.852 308.329 111.68 308.345 110.903C315.054 112.329 324.656 115.42 333.884 122.636C336.455 124.646 338.666 126.717 340.561 128.73C340.561 128.729 334.21 167.623 363.314 174.299Z" fill="#D5B7A9"/>
</g>
<g opacity="0.42">
<path d="M368.619 177.023C368.639 176.611 378.28 178.783 389.233 174.689C397.522 171.592 402.728 166.341 405.763 163.215C414.399 154.32 418.103 144.409 419.764 138.322C419.764 138.322 426.766 127.723 444.948 129.377C444.764 130.074 444.471 131.126 444.073 132.392C442.18 138.397 436.643 155.138 420.25 167.009C408.431 175.566 396.713 177.434 392.246 178.093C379.223 180.013 368.598 177.455 368.619 177.023Z" fill="#D5B7A9"/>
</g>
<g opacity="0.42">
<path d="M358.808 177.023C358.788 176.611 349.147 178.783 338.194 174.689C329.905 171.592 324.698 166.341 321.664 163.215C313.028 154.32 309.324 144.409 307.663 138.322C307.663 138.322 300.661 127.723 282.479 129.377C282.662 130.074 282.955 131.126 283.354 132.392C285.247 138.397 290.784 155.138 307.177 167.009C318.995 175.566 330.714 177.434 335.181 178.093C348.204 180.013 358.829 177.455 358.808 177.023Z" fill="#D5B7A9"/>
</g>
<mask id="mask1_62_6097" style="mask-type:alpha" maskUnits="userSpaceOnUse" x="464" y="93" width="81" height="86">
<rect width="80" height="85" transform="matrix(-1 0 0 1 544.952 93.3997)" fill="#D9D9D9"/>
</mask>
<g mask="url(#mask1_62_6097)">
<path d="M544.961 171.837C540.752 169.541 526.618 161.182 523.828 146.036C523.301 143.177 523.051 139.378 524.346 132.812C525.866 125.109 530.215 110.061 545.09 93.3999C545.612 94.1304 546.378 95.2056 547.294 96.5113C550.648 101.291 556.619 109.995 558.963 114.013C560.402 116.482 567.3 129.611 566.871 141.239C566.236 158.464 551.07 167.428 547.555 170.151L544.961 171.837Z" fill="#D5B7A9"/>
<path d="M509.683 115.571C509.683 115.571 522.518 122.701 522.518 126.332C522.518 126.332 527.444 111.811 530.168 109.996L514.611 99.2351L509.683 115.571Z" fill="#D5B7A9"/>
<g opacity="0.86">
<path d="M544.833 174.3C549.593 175.391 526.735 175.554 514.755 167.559C507.661 162.824 503.251 156.521 501.661 154.206C498.444 149.525 496.816 145.56 495.438 142.148C494.131 138.91 490.159 128.425 489.864 114.274C489.834 112.852 489.848 111.681 489.864 110.904C496.573 112.329 506.175 115.421 515.404 122.637C517.974 124.646 520.185 126.718 522.08 128.731C522.08 128.729 515.729 167.623 544.833 174.3Z" fill="#D5B7A9"/>
</g>
<g opacity="0.86">
<path d="M546.117 174.3C541.357 175.391 564.215 175.554 576.195 167.559C583.289 162.824 587.699 156.521 589.288 154.206C592.505 149.525 594.134 145.56 595.511 142.148C596.819 138.91 600.791 128.425 601.086 114.274C601.116 112.852 601.102 111.681 601.086 110.904C594.377 112.329 584.775 115.421 575.546 122.637C572.976 124.646 570.765 126.718 568.87 128.731C568.87 128.729 575.221 167.623 546.117 174.3Z" fill="#D5B7A9"/>
</g>
<g opacity="0.42">
<path d="M540.811 177.023C540.792 176.611 531.15 178.783 520.198 174.689C511.909 171.592 506.702 166.341 503.668 163.215C495.032 154.32 491.328 144.409 489.666 138.322C489.666 138.322 482.665 127.723 464.482 129.377C464.666 130.074 464.959 131.126 465.358 132.392C467.251 138.397 472.788 155.138 489.181 167.009C500.999 175.566 512.718 177.434 517.185 178.093C530.207 180.013 540.833 177.455 540.811 177.023Z" fill="#D5B7A9"/>
</g>
</g>
<path d="M90.9986 265.237C95.2084 262.941 109.342 254.582 112.132 239.436C112.659 236.577 112.909 232.778 111.614 226.212C110.094 218.508 105.745 203.461 90.87 186.8C90.3485 187.53 89.5822 188.606 88.666 189.911C85.3117 194.691 79.3407 203.394 76.9973 207.413C75.5577 209.882 68.6598 223.011 69.0885 234.639C69.7243 251.864 84.8901 260.828 88.4052 263.55L90.9986 265.237Z" fill="#D5B7A9"/>
<path d="M56.3848 208.971C56.3848 208.971 69.2197 216.101 69.2197 219.732C69.2197 219.732 74.1458 205.211 76.8696 203.396L61.3126 192.635L56.3848 208.971Z" fill="#D5B7A9"/>
<path d="M126.274 208.971C126.274 208.971 113.439 216.101 113.439 219.732C113.439 219.732 108.513 205.211 105.789 203.396L121.346 192.635L126.274 208.971Z" fill="#D5B7A9"/>
<g opacity="0.86">
<path d="M91.1268 267.7C86.3669 268.791 109.225 268.953 121.205 260.959C128.299 256.224 132.709 249.921 134.299 247.606C137.515 242.925 139.144 238.959 140.521 235.548C141.829 232.31 145.801 221.825 146.096 207.674C146.126 206.252 146.112 205.081 146.096 204.304C139.387 205.729 129.785 208.821 120.556 216.037C117.986 218.046 115.775 220.118 113.88 222.131C113.88 222.129 120.231 261.023 91.1268 267.7Z" fill="#D5B7A9"/>
</g>
<g opacity="0.86">
<path d="M89.8404 267.7C94.6004 268.791 71.7418 268.953 59.7625 260.959C52.6681 256.224 48.2582 249.921 46.6685 247.606C43.4518 242.925 41.8228 238.959 40.4458 235.548C39.1383 232.31 35.166 221.825 34.8713 207.674C34.841 206.252 34.8552 205.081 34.8713 204.304C41.5799 205.729 51.182 208.821 60.4108 216.037C62.981 218.046 65.1922 220.118 67.0873 222.131C67.0873 222.129 60.7359 261.023 89.8404 267.7Z" fill="#D5B7A9"/>
</g>
<g opacity="0.42">
<path d="M95.1465 270.423C95.1662 270.011 104.808 272.182 115.76 268.089C124.049 264.992 129.256 259.74 132.29 256.615C140.926 247.72 144.63 237.809 146.292 231.722C146.292 231.722 153.293 221.123 171.476 222.777C171.292 223.474 170.999 224.526 170.6 225.792C168.707 231.797 163.17 248.538 146.777 260.408C134.959 268.966 123.24 270.834 118.773 271.493C105.751 273.413 95.1251 270.855 95.1465 270.423Z" fill="#D5B7A9"/>
</g>
<g opacity="0.42">
<path d="M85.3369 270.423C85.3173 270.011 75.6759 272.183 64.7235 268.089C56.4342 264.992 51.2277 259.741 48.1931 256.615C39.5573 247.72 35.8529 237.809 34.1919 231.722C34.1919 231.722 27.1903 221.123 9.00781 222.777C9.19178 223.474 9.4847 224.526 9.883 225.792C11.7763 231.797 17.3132 248.538 33.706 260.409C45.5247 268.966 57.2433 270.834 61.7103 271.493C74.7328 273.413 85.3583 270.856 85.3369 270.423Z" fill="#D5B7A9"/>
</g>
<path d="M273.47 265.237C277.68 262.941 291.814 254.582 294.603 239.436C295.13 236.577 295.38 232.778 294.085 226.212C292.566 218.508 288.216 203.461 273.342 186.8C272.82 187.53 272.054 188.606 271.138 189.911C267.783 194.691 261.812 203.394 259.469 207.413C258.029 209.882 251.131 223.011 251.56 234.639C252.196 251.864 267.362 260.828 270.877 263.55L273.47 265.237Z" fill="#D5B7A9"/>
<path d="M238.856 208.97C238.856 208.97 251.691 216.101 251.691 219.732C251.691 219.732 256.617 205.211 259.341 203.396L243.784 192.635L238.856 208.97Z" fill="#D5B7A9"/>
<path d="M308.746 208.97C308.746 208.97 295.911 216.101 295.911 219.732C295.911 219.732 290.985 205.211 288.261 203.396L303.818 192.635L308.746 208.97Z" fill="#D5B7A9"/>
<g opacity="0.86">
<path d="M273.598 267.699C268.839 268.791 291.697 268.953 303.676 260.959C310.771 256.224 315.181 249.921 316.77 247.606C319.987 242.924 321.616 238.959 322.993 235.548C324.301 232.31 328.273 221.825 328.568 207.674C328.598 206.252 328.584 205.08 328.568 204.303C321.859 205.729 312.257 208.821 303.028 216.036C300.458 218.046 298.247 220.118 296.352 222.131C296.352 222.129 302.703 261.023 273.598 267.699Z" fill="#D5B7A9"/>
</g>
<g opacity="0.86">
<path d="M272.312 267.699C277.072 268.791 254.214 268.953 242.234 260.959C235.14 256.224 230.73 249.921 229.14 247.606C225.923 242.924 224.295 238.959 222.917 235.548C221.61 232.31 217.638 221.825 217.343 207.674C217.313 206.252 217.327 205.08 217.343 204.303C224.052 205.729 233.654 208.821 242.882 216.036C245.453 218.046 247.664 220.118 249.559 222.131C249.559 222.129 243.208 261.023 272.312 267.699Z" fill="#D5B7A9"/>
</g>
<g opacity="0.42">
<path d="M277.618 270.423C277.638 270.011 287.279 272.183 298.232 268.089C306.521 264.992 311.727 259.741 314.762 256.615C323.398 247.72 327.102 237.809 328.763 231.722C328.763 231.722 335.765 221.123 353.947 222.777C353.763 223.474 353.47 224.526 353.072 225.792C351.179 231.797 345.642 248.538 329.249 260.409C317.43 268.966 305.712 270.834 301.245 271.493C288.222 273.413 277.597 270.856 277.618 270.423Z" fill="#D5B7A9"/>
</g>
<g opacity="0.42">
<path d="M267.809 270.423C267.789 270.011 258.148 272.183 247.195 268.089C238.906 264.992 233.699 259.741 230.665 256.615C222.029 247.72 218.325 237.809 216.664 231.722C216.664 231.722 209.662 221.123 191.479 222.777C191.663 223.474 191.956 224.526 192.355 225.792C194.248 231.797 199.785 248.538 216.178 260.409C227.996 268.966 239.715 270.834 244.182 271.493C257.204 273.413 267.83 270.856 267.809 270.423Z" fill="#D5B7A9"/>
</g>
<path d="M455.943 265.236C460.153 262.941 474.286 254.582 477.076 239.436C477.603 236.576 477.853 232.777 476.558 226.211C475.038 218.508 470.689 203.46 455.814 186.799C455.293 187.53 454.527 188.605 453.61 189.911C450.256 194.69 444.285 203.394 441.942 207.413C440.502 209.881 433.604 223.011 434.033 234.638C434.669 251.863 449.834 260.828 453.35 263.55L455.943 265.236Z" fill="#D5B7A9"/>
<path d="M421.329 208.97C421.329 208.97 434.164 216.1 434.164 219.731C434.164 219.731 439.09 205.21 441.814 203.396L426.257 192.635L421.329 208.97Z" fill="#D5B7A9"/>
<path d="M491.218 208.97C491.218 208.97 478.383 216.1 478.383 219.731C478.383 219.731 473.457 205.21 470.733 203.396L486.29 192.634L491.218 208.97Z" fill="#D5B7A9"/>
<g opacity="0.86">
<path d="M456.071 267.699C451.311 268.79 474.17 268.953 486.149 260.958C493.244 256.223 497.653 249.92 499.243 247.605C502.46 242.924 504.089 238.959 505.466 235.547C506.773 232.309 510.746 221.825 511.04 207.673C511.071 206.252 511.056 205.08 511.04 204.303C504.332 205.728 494.73 208.82 485.501 216.036C482.931 218.045 480.719 220.117 478.824 222.13C478.824 222.128 485.176 261.022 456.071 267.699Z" fill="#D5B7A9"/>
</g>
<g opacity="0.86">
<path d="M454.785 267.699C459.545 268.79 436.686 268.953 424.707 260.958C417.612 256.223 413.203 249.92 411.613 247.605C408.396 242.924 406.767 238.959 405.39 235.547C404.083 232.309 400.11 221.825 399.816 207.673C399.785 206.252 399.8 205.08 399.816 204.303C406.524 205.728 416.126 208.82 425.355 216.036C427.925 218.045 430.137 220.117 432.032 222.13C432.032 222.128 425.68 261.022 454.785 267.699Z" fill="#D5B7A9"/>
</g>
<g opacity="0.42">
<path d="M460.091 270.423C460.11 270.011 469.752 272.182 480.704 268.089C488.994 264.992 494.2 259.74 497.235 256.615C505.87 247.72 509.575 237.809 511.236 231.722C511.236 231.722 518.237 221.123 536.42 222.777C536.236 223.474 535.943 224.526 535.545 225.792C533.651 231.797 528.115 248.538 511.722 260.408C499.903 268.966 488.184 270.834 483.717 271.493C470.695 273.413 460.069 270.855 460.091 270.423Z" fill="#D5B7A9"/>
</g>
<g opacity="0.42">
<path d="M450.281 270.423C450.262 270.011 440.62 272.182 429.668 268.089C421.379 264.992 416.172 259.74 413.137 256.615C404.502 247.72 400.797 237.809 399.136 231.722C399.136 231.722 392.135 221.123 373.952 222.777C374.136 223.474 374.429 224.526 374.827 225.792C376.721 231.797 382.258 248.538 398.65 260.408C410.469 268.966 422.188 270.834 426.655 271.493C439.677 273.413 450.303 270.855 450.281 270.423Z" fill="#D5B7A9"/>
</g>
<mask id="mask2_62_6097" style="mask-type:alpha" maskUnits="userSpaceOnUse" x="0" y="280" width="80" height="86">
<rect y="280.199" width="80" height="85" fill="#D9D9D9"/>
</mask>
<g mask="url(#mask2_62_6097)">
<path d="M-0.00920805 358.636C4.20064 356.341 18.3341 347.982 21.124 332.836C21.6509 329.976 21.9009 326.177 20.606 319.612C19.086 311.908 14.7369 296.86 -0.137813 280.199C-0.659355 280.93 -1.42559 282.005 -2.34186 283.311C-5.69616 288.09 -11.6671 296.794 -14.0105 300.813C-15.4501 303.281 -22.348 316.411 -21.9193 328.038C-21.2835 345.264 -6.11768 354.228 -2.60263 356.95L-0.00920805 358.636Z" fill="#D5B7A9"/>
<path d="M35.269 302.37C35.269 302.37 22.434 309.5 22.434 313.132C22.434 313.132 17.508 298.611 14.7842 296.796L30.3411 286.035L35.269 302.37Z" fill="#D5B7A9"/>
<g opacity="0.86">
<path d="M0.119001 361.099C-4.64096 362.191 18.2176 362.353 30.197 354.359C37.2914 349.624 41.7013 343.32 43.2909 341.006C46.5077 336.324 48.1366 332.359 49.5137 328.948C50.8211 325.709 54.7934 315.225 55.0881 301.074C55.1185 299.652 55.1042 298.48 55.0881 297.703C48.3795 299.129 38.7774 302.22 29.5486 309.436C26.9784 311.446 24.7672 313.518 22.8722 315.53C22.8722 315.529 29.2235 354.423 0.119001 361.099Z" fill="#D5B7A9"/>
</g>
<g opacity="0.86">
<path d="M-1.16446 361.099C3.59551 362.191 -19.263 362.353 -31.2424 354.359C-38.3368 349.624 -42.7467 343.32 -44.3363 341.006C-47.5531 336.324 -49.182 332.359 -50.5591 328.948C-51.8666 325.709 -55.8389 315.225 -56.1336 301.074C-56.1639 299.652 -56.1496 298.48 -56.1336 297.703C-49.425 299.129 -39.8229 302.22 -30.5941 309.436C-28.0239 311.446 -25.8127 313.518 -23.9176 315.53C-23.9176 315.529 -30.269 354.423 -1.16446 361.099Z" fill="#D5B7A9"/>
</g>
<g opacity="0.42">
<path d="M4.14066 363.823C4.1603 363.41 13.8017 365.582 24.7541 361.488C33.0434 358.391 38.2499 353.14 41.2845 350.014C49.9203 341.12 53.6246 331.209 55.2857 325.121C55.2857 325.121 62.2872 314.523 80.4698 316.177C80.2858 316.873 79.9929 317.925 79.5946 319.192C77.7013 325.197 72.1644 341.938 55.7715 353.808C43.9529 362.365 32.2343 364.234 27.7672 364.893C14.7447 366.813 4.11922 364.255 4.14066 363.823Z" fill="#D5B7A9"/>
</g>
</g>
<path d="M181.994 358.636C186.204 356.341 200.337 347.982 203.127 332.836C203.654 329.976 203.904 326.177 202.609 319.611C201.089 311.908 196.74 296.86 181.865 280.199C181.344 280.93 180.577 282.005 179.661 283.311C176.307 288.09 170.336 296.794 167.992 300.813C166.553 303.281 159.655 316.411 160.084 328.038C160.719 345.263 175.885 354.228 179.4 356.95L181.994 358.636Z" fill="#D5B7A9"/>
<path d="M147.381 302.37C147.381 302.37 160.216 309.5 160.216 313.131C160.216 313.131 165.142 298.61 167.866 296.796L152.309 286.034L147.381 302.37Z" fill="#D5B7A9"/>
<path d="M217.27 302.37C217.27 302.37 204.435 309.5 204.435 313.131C204.435 313.131 199.509 298.61 196.785 296.796L212.342 286.034L217.27 302.37Z" fill="#D5B7A9"/>
<g opacity="0.86">
<path d="M182.122 361.099C177.362 362.191 200.221 362.353 212.2 354.359C219.294 349.624 223.704 343.32 225.294 341.006C228.511 336.324 230.14 332.359 231.517 328.948C232.824 325.709 236.796 315.225 237.091 301.074C237.121 299.652 237.107 298.48 237.091 297.703C230.382 299.129 220.78 302.22 211.552 309.436C208.981 311.446 206.77 313.518 204.875 315.53C204.875 315.529 211.226 354.423 182.122 361.099Z" fill="#D5B7A9"/>
</g>
<g opacity="0.86">
<path d="M180.838 361.099C185.598 362.191 162.74 362.353 150.761 354.359C143.666 349.624 139.256 343.32 137.667 341.006C134.45 336.324 132.821 332.359 131.444 328.948C130.136 325.709 126.164 315.225 125.869 301.074C125.839 299.652 125.853 298.48 125.869 297.703C132.578 299.129 142.18 302.22 151.409 309.436C153.979 311.446 156.19 313.518 158.085 315.53C158.085 315.529 151.734 354.423 180.838 361.099Z" fill="#D5B7A9"/>
</g>
<g opacity="0.42">
<path d="M186.145 363.823C186.164 363.41 195.806 365.582 206.758 361.488C215.047 358.391 220.254 353.14 223.288 350.014C231.924 341.12 235.629 331.209 237.29 325.121C237.29 325.121 244.291 314.523 262.474 316.177C262.29 316.873 261.997 317.925 261.598 319.192C259.705 325.197 254.168 341.938 237.775 353.808C225.957 362.365 214.238 364.234 209.771 364.893C196.749 366.813 186.123 364.255 186.145 363.823Z" fill="#D5B7A9"/>
</g>
<g opacity="0.42">
<path d="M176.333 363.823C176.313 363.41 166.672 365.582 155.72 361.488C147.43 358.391 142.224 353.14 139.189 350.014C130.553 341.12 126.849 331.209 125.188 325.121C125.188 325.121 118.186 314.523 100.004 316.177C100.188 316.873 100.481 317.925 100.879 319.192C102.772 325.197 108.309 341.938 124.702 353.808C136.521 362.365 148.239 364.234 152.706 364.893C165.729 366.813 176.354 364.255 176.333 363.823Z" fill="#D5B7A9"/>
</g>
<path d="M364.468 358.636C368.678 356.341 382.812 347.982 385.602 332.836C386.128 329.976 386.378 326.177 385.084 319.611C383.564 311.908 379.214 296.86 364.34 280.199C363.818 280.93 363.052 282.005 362.136 283.311C358.781 288.09 352.81 296.794 350.467 300.813C349.027 303.281 342.13 316.411 342.558 328.038C343.194 345.263 358.36 354.228 361.875 356.95L364.468 358.636Z" fill="#D5B7A9"/>
<path d="M329.855 302.37C329.855 302.37 342.69 309.5 342.69 313.132C342.69 313.132 347.616 298.611 350.34 296.796L334.783 286.035L329.855 302.37Z" fill="#D5B7A9"/>
<path d="M399.745 302.37C399.745 302.37 386.91 309.5 386.91 313.132C386.91 313.132 381.984 298.611 379.26 296.796L394.817 286.035L399.745 302.37Z" fill="#D5B7A9"/>
<g opacity="0.86">
<path d="M364.597 361.099C359.837 362.19 382.695 362.353 394.675 354.358C401.769 349.623 406.179 343.32 407.768 341.005C410.985 336.324 412.614 332.359 413.991 328.947C415.299 325.709 419.271 315.225 419.566 301.073C419.596 299.652 419.582 298.48 419.566 297.703C412.857 299.128 403.255 302.22 394.026 309.436C391.456 311.445 389.245 313.517 387.35 315.53C387.35 315.528 393.701 354.423 364.597 361.099Z" fill="#D5B7A9"/>
</g>
<g opacity="0.86">
<path d="M363.313 361.099C368.073 362.19 345.215 362.353 333.235 354.358C326.141 349.623 321.731 343.32 320.141 341.005C316.924 336.324 315.295 332.359 313.918 328.947C312.611 325.709 308.639 315.225 308.344 301.073C308.314 299.652 308.328 298.48 308.344 297.703C315.053 299.128 324.655 302.22 333.883 309.436C336.454 311.445 338.665 313.517 340.56 315.53C340.56 315.528 334.209 354.423 363.313 361.099Z" fill="#D5B7A9"/>
</g>
<g opacity="0.42">
<path d="M368.619 363.823C368.639 363.41 378.28 365.582 389.233 361.488C397.522 358.391 402.728 353.14 405.763 350.014C414.399 341.12 418.103 331.209 419.764 325.121C419.764 325.121 426.766 314.523 444.948 316.177C444.764 316.873 444.471 317.925 444.073 319.192C442.18 325.197 436.643 341.938 420.25 353.808C408.431 362.365 396.713 364.234 392.246 364.893C379.223 366.813 368.598 364.255 368.619 363.823Z" fill="#D5B7A9"/>
</g>
<g opacity="0.42">
<path d="M358.808 363.823C358.788 363.41 349.147 365.582 338.194 361.488C329.905 358.391 324.698 353.14 321.664 350.014C313.028 341.12 309.324 331.209 307.663 325.121C307.663 325.121 300.661 314.523 282.479 316.177C282.662 316.873 282.955 317.925 283.354 319.192C285.247 325.197 290.784 341.938 307.177 353.808C318.995 362.365 330.714 364.234 335.181 364.893C348.204 366.813 358.829 364.255 358.808 363.823Z" fill="#D5B7A9"/>
</g>
<mask id="mask3_62_6097" style="mask-type:alpha" maskUnits="userSpaceOnUse" x="464" y="280" width="81" height="86">
<rect width="80" height="85" transform="matrix(-1 0 0 1 544.952 280.199)" fill="#D9D9D9"/>
</mask>
<g mask="url(#mask3_62_6097)">
<path d="M544.961 358.636C540.752 356.341 526.618 347.982 523.828 332.836C523.301 329.976 523.051 326.177 524.346 319.612C525.866 311.908 530.215 296.86 545.09 280.199C545.612 280.93 546.378 282.005 547.294 283.311C550.648 288.09 556.619 296.794 558.963 300.813C560.402 303.281 567.3 316.411 566.871 328.038C566.236 345.264 551.07 354.228 547.555 356.95L544.961 358.636Z" fill="#D5B7A9"/>
<path d="M509.683 302.37C509.683 302.37 522.518 309.5 522.518 313.132C522.518 313.132 527.444 298.611 530.168 296.796L514.611 286.035L509.683 302.37Z" fill="#D5B7A9"/>
<g opacity="0.86">
<path d="M544.833 361.099C549.593 362.191 526.735 362.353 514.755 354.359C507.661 349.624 503.251 343.32 501.661 341.006C498.444 336.324 496.816 332.359 495.438 328.948C494.131 325.709 490.159 315.225 489.864 301.074C489.834 299.652 489.848 298.48 489.864 297.703C496.573 299.129 506.175 302.22 515.404 309.436C517.974 311.446 520.185 313.518 522.08 315.53C522.08 315.529 515.729 354.423 544.833 361.099Z" fill="#D5B7A9"/>
</g>
<g opacity="0.86">
<path d="M546.117 361.099C541.357 362.191 564.215 362.353 576.195 354.359C583.289 349.624 587.699 343.32 589.288 341.006C592.505 336.324 594.134 332.359 595.511 328.948C596.819 325.709 600.791 315.225 601.086 301.074C601.116 299.652 601.102 298.48 601.086 297.703C594.377 299.129 584.775 302.22 575.546 309.436C572.976 311.446 570.765 313.518 568.87 315.53C568.87 315.529 575.221 354.423 546.117 361.099Z" fill="#D5B7A9"/>
</g>
<g opacity="0.42">
<path d="M540.811 363.823C540.792 363.41 531.15 365.582 520.198 361.488C511.909 358.391 506.702 353.14 503.668 350.014C495.032 341.12 491.328 331.209 489.666 325.121C489.666 325.121 482.665 314.523 464.482 316.177C464.666 316.873 464.959 317.925 465.358 319.192C467.251 325.197 472.788 341.938 489.181 353.808C500.999 362.365 512.718 364.234 517.185 364.893C530.207 366.813 540.833 364.255 540.811 363.823Z" fill="#D5B7A9"/>
</g>
</g>
</svg>
